<svg width="680" height="520" viewBox="0 0 680 520" xmlns="http://www.w3.org/2000/svg">
<defs>
<marker id="arrow" viewBox="0 0 10 10" refX="8" refY="5" markerWidth="6" markerHeight="6" orient="auto-start-reverse"><path d="M2 1L8 5L2 9" fill="none" stroke="context-stroke" stroke-width="1.5" stroke-linecap="round" stroke-linejoin="round"/></marker>
</defs>

<text x="130" y="40" text-anchor="middle" font-family="sans-serif" font-size="12" fill="#666">Encoder (downsampling)</text>
<text x="550" y="40" text-anchor="middle" font-family="sans-serif" font-size="12" fill="#666">Decoder (upsampling)</text>

<rect x="60" y="130" width="140" height="44" rx="8" fill="#E6F1FB" stroke="#185FA5" stroke-width="0.5"/>
<text x="130" y="148" text-anchor="middle" dominant-baseline="central" font-family="sans-serif" font-size="14" font-weight="500" fill="#0C447C">Input spectrogram</text>
<text x="130" y="164" text-anchor="middle" dominant-baseline="central" font-family="sans-serif" font-size="12" fill="#185FA5">1 channel, full res</text>

<rect x="70" y="230" width="120" height="44" rx="8" fill="#E6F1FB" stroke="#185FA5" stroke-width="0.5"/>
<text x="130" y="248" text-anchor="middle" dominant-baseline="central" font-family="sans-serif" font-size="14" font-weight="500" fill="#0C447C">Down 1</text>
<text x="130" y="264" text-anchor="middle" dominant-baseline="central" font-family="sans-serif" font-size="12" fill="#185FA5">64 ch, 1/2 res</text>

<rect x="260" y="360" width="160" height="56" rx="8" fill="#EEEDFE" stroke="#534AB7" stroke-width="1"/>
<text x="340" y="380" text-anchor="middle" dominant-baseline="central" font-family="sans-serif" font-size="14" font-weight="500" fill="#3C3489">Bottleneck</text>
<text x="340" y="400" text-anchor="middle" dominant-baseline="central" font-family="sans-serif" font-size="12" fill="#534AB7">128 ch, 1/4 res</text>

<rect x="490" y="230" width="120" height="44" rx="8" fill="#E1F5EE" stroke="#0F6E56" stroke-width="0.5"/>
<text x="550" y="248" text-anchor="middle" dominant-baseline="central" font-family="sans-serif" font-size="14" font-weight="500" fill="#085041">Up 1</text>
<text x="550" y="264" text-anchor="middle" dominant-baseline="central" font-family="sans-serif" font-size="12" fill="#0F6E56">64 ch, 1/2 res</text>

<rect x="480" y="130" width="140" height="44" rx="8" fill="#E1F5EE" stroke="#0F6E56" stroke-width="0.5"/>
<text x="550" y="148" text-anchor="middle" dominant-baseline="central" font-family="sans-serif" font-size="14" font-weight="500" fill="#085041">Up 2 + output</text>
<text x="550" y="164" text-anchor="middle" dominant-baseline="central" font-family="sans-serif" font-size="12" fill="#0F6E56">Mask, full res</text>

<line x1="130" y1="174" x2="130" y2="228" stroke="#185FA5" stroke-width="1" marker-end="url(#arrow)"/>
<path d="M130 274 Q130 340 260 388" fill="none" stroke="#185FA5" stroke-width="1" marker-end="url(#arrow)"/>

<path d="M420 388 Q550 340 550 274" fill="none" stroke="#0F6E56" stroke-width="1" marker-end="url(#arrow)"/>
<line x1="550" y1="228" x2="550" y2="174" stroke="#0F6E56" stroke-width="1" marker-end="url(#arrow)"/>

<path d="M200 152 L480 152" fill="none" stroke="#993C1D" stroke-width="1" stroke-dasharray="4 3" marker-end="url(#arrow)"/>
<path d="M190 252 L490 252" fill="none" stroke="#993C1D" stroke-width="1" stroke-dasharray="4 3" marker-end="url(#arrow)"/>

<text x="340" y="148" text-anchor="middle" font-family="sans-serif" font-size="12" fill="#993C1D">skip</text>
<text x="340" y="248" text-anchor="middle" font-family="sans-serif" font-size="12" fill="#993C1D">skip</text>

<g transform="translate(60, 460)">
<rect x="0" y="0" width="12" height="12" rx="2" fill="#E6F1FB" stroke="#185FA5" stroke-width="0.5"/>
<text x="20" y="10" font-family="sans-serif" font-size="12" fill="#666">Encoder</text>
<rect x="100" y="0" width="12" height="12" rx="2" fill="#EEEDFE" stroke="#534AB7" stroke-width="0.5"/>
<text x="120" y="10" font-family="sans-serif" font-size="12" fill="#666">Bottleneck</text>
<rect x="210" y="0" width="12" height="12" rx="2" fill="#E1F5EE" stroke="#0F6E56" stroke-width="0.5"/>
<text x="230" y="10" font-family="sans-serif" font-size="12" fill="#666">Decoder</text>
<line x1="310" y1="6" x2="340" y2="6" stroke="#993C1D" stroke-width="1" stroke-dasharray="4 3"/>
<text x="348" y="10" font-family="sans-serif" font-size="12" fill="#666">Skip connection</text>
</g>
</svg>
